<mxfile host="app.diagrams.net" modified="2023-09-27T13:57:49.694Z" agent="Mozilla/5.0 (Windows NT 10.0; Win64; x64) AppleWebKit/537.36 (KHTML, like Gecko) Chrome/116.0.0.0 Safari/537.36 OPR/102.0.0.0" version="21.6.6" etag="qcnm18aI8939W7FnJb7o" type="github">
  <diagram name="Page-1" id="e07bkVsTmbPTa-bfTbEt">
    <mxGraphModel>
      <root>
        <mxCell id="0" />
        <mxCell id="1" parent="0" />
      </root>
    </mxGraphModel>
  </diagram>
</mxfile>
